<svg width="512" height="512" viewBox="0 0 512 512" fill="none" xmlns="http://www.w3.org/2000/svg">
<path d="M64 256C64 362 150 448 256 448C362 448 448 362 448 256C448 150 362 64 256 64C150 64 64 150 64 256Z" stroke="white" stroke-width="32" stroke-miterlimit="10"/>
<path d="M117.23 265.3L231.68 334.44C233.32 335.423 235.193 335.952 237.105 335.972C239.017 335.992 240.901 335.504 242.562 334.556C244.223 333.609 245.602 332.236 246.558 330.58C247.513 328.923 248.011 327.042 248 325.13V271.81L351.68 334.44C353.32 335.423 355.193 335.952 357.105 335.972C359.017 335.992 360.901 335.504 362.562 334.556C364.223 333.609 365.602 332.236 366.558 330.58C367.513 328.923 368.011 327.042 368 325.13V186.87C368.011 184.958 367.513 183.077 366.558 181.42C365.602 179.764 364.223 178.391 362.562 177.444C360.901 176.496 359.017 176.008 357.105 176.028C355.193 176.048 353.32 176.577 351.68 177.56L248 240.19V186.87C248.011 184.958 247.513 183.077 246.558 181.42C245.602 179.764 244.223 178.391 242.562 177.444C240.901 176.496 239.017 176.008 237.105 176.028C235.193 176.048 233.32 176.577 231.68 177.56L117.23 246.7C115.635 247.672 114.316 249.038 113.401 250.667C112.486 252.295 112.006 254.132 112.006 256C112.006 257.868 112.486 259.705 113.401 261.333C114.316 262.962 115.635 264.328 117.23 265.3V265.3Z" fill="white"/>
</svg>
