<svg width="512" height="512" viewBox="0 0 512 512" fill="none" xmlns="http://www.w3.org/2000/svg">
<path d="M448 256C448 150 362 64 256 64C150 64 64 150 64 256C64 362 150 448 256 448C362 448 448 362 448 256Z" stroke="white" stroke-width="32" stroke-miterlimit="10"/>
<path d="M310.4 336H201.6C194.812 335.995 188.304 333.296 183.504 328.496C178.704 323.696 176.005 317.188 176 310.4V201.6C176.005 194.812 178.704 188.304 183.504 183.504C188.304 178.704 194.812 176.005 201.6 176H310.4C317.188 176.005 323.696 178.704 328.496 183.504C333.296 188.304 335.995 194.812 336 201.6V310.4C335.995 317.188 333.296 323.696 328.496 328.496C323.696 333.296 317.188 335.995 310.4 336Z" fill="white"/>
</svg>
