<svg width="135" height="135" viewBox="0 0 135 135" fill="none" xmlns="http://www.w3.org/2000/svg">
<path fill-rule="evenodd" clip-rule="evenodd" d="M67.5 123.75C98.566 123.75 123.75 98.566 123.75 67.5C123.75 36.434 98.566 11.25 67.5 11.25C36.434 11.25 11.25 36.434 11.25 67.5C11.25 98.566 36.434 123.75 67.5 123.75ZM56.25 46.75C58.3901 46.75 60.125 48.4849 60.125 50.625V84.375C60.125 86.5151 58.3901 88.25 56.25 88.25C54.1099 88.25 52.375 86.5151 52.375 84.375V50.625C52.375 48.4849 54.1099 46.75 56.25 46.75ZM82.625 50.625C82.625 48.4849 80.8901 46.75 78.75 46.75C76.6099 46.75 74.875 48.4849 74.875 50.625V84.375C74.875 86.5151 76.6099 88.25 78.75 88.25C80.8901 88.25 82.625 86.5151 82.625 84.375V50.625Z" fill="#DBDBDB"/>
</svg>
