<svg width="512" height="512" viewBox="0 0 512 512" fill="none" xmlns="http://www.w3.org/2000/svg">
<path d="M448 256C448 150 362 64 256 64C150 64 64 150 64 256C64 362 150 448 256 448C362 448 448 362 448 256Z" stroke="white" stroke-width="32" stroke-miterlimit="10"/>
<path d="M394.77 246.7L280.32 177.56C278.679 176.577 276.807 176.048 274.895 176.028C272.983 176.008 271.099 176.496 269.438 177.444C267.777 178.391 266.398 179.764 265.442 181.42C264.487 183.077 263.989 184.958 264 186.87V240.19L160.32 177.56C158.679 176.577 156.807 176.048 154.895 176.028C152.983 176.008 151.099 176.496 149.438 177.444C147.777 178.391 146.398 179.764 145.442 181.42C144.487 183.077 143.989 184.958 144 186.87V325.13C143.989 327.042 144.487 328.923 145.442 330.58C146.398 332.236 147.777 333.609 149.438 334.556C151.099 335.504 152.983 335.992 154.895 335.972C156.807 335.952 158.679 335.423 160.32 334.44L264 271.81V325.13C263.989 327.042 264.487 328.923 265.442 330.58C266.398 332.236 267.777 333.609 269.438 334.556C271.099 335.504 272.983 335.992 274.895 335.972C276.807 335.952 278.679 335.423 280.32 334.44L394.77 265.3C396.365 264.328 397.684 262.962 398.599 261.333C399.514 259.705 399.994 257.868 399.994 256C399.994 254.132 399.514 252.295 398.599 250.667C397.684 249.038 396.365 247.672 394.77 246.7V246.7Z" fill="white"/>
</svg>
